<mxfile host="app.diagrams.net" agent="Mozilla/5.0 (Windows NT 10.0; Win64; x64) AppleWebKit/537.36 (KHTML, like Gecko) Chrome/132.0.0.0 Safari/537.36" version="26.0.13">
  <diagram name="Page-1" id="gXp0PVsO5oBd3Z3vdWj3">
    <mxGraphModel dx="897" dy="875" grid="1" gridSize="10" guides="1" tooltips="1" connect="1" arrows="1" fold="1" page="1" pageScale="1" pageWidth="850" pageHeight="1100" math="0" shadow="0">
      <root>
        <mxCell id="0" />
        <mxCell id="1" parent="0" />
        <mxCell id="6NykVeGMg2j_kF3JhgFq-1" value="Player" style="swimlane;fontStyle=1;align=center;verticalAlign=top;childLayout=stackLayout;horizontal=1;startSize=26;horizontalStack=0;resizeParent=1;resizeParentMax=0;resizeLast=0;collapsible=1;marginBottom=0;whiteSpace=wrap;html=1;" vertex="1" parent="1">
          <mxGeometry x="100" y="30" width="160" height="120" as="geometry">
            <mxRectangle x="320" y="330" width="70" height="30" as="alternateBounds" />
          </mxGeometry>
        </mxCell>
        <mxCell id="6NykVeGMg2j_kF3JhgFq-2" value="name : string&lt;div&gt;symbol : string&lt;/div&gt;" style="text;strokeColor=none;fillColor=none;align=left;verticalAlign=top;spacingLeft=4;spacingRight=4;overflow=hidden;rotatable=0;points=[[0,0.5],[1,0.5]];portConstraint=eastwest;whiteSpace=wrap;html=1;" vertex="1" parent="6NykVeGMg2j_kF3JhgFq-1">
          <mxGeometry y="26" width="160" height="44" as="geometry" />
        </mxCell>
        <mxCell id="6NykVeGMg2j_kF3JhgFq-3" value="" style="line;strokeWidth=1;fillColor=none;align=left;verticalAlign=middle;spacingTop=-1;spacingLeft=3;spacingRight=3;rotatable=0;labelPosition=right;points=[];portConstraint=eastwest;strokeColor=inherit;" vertex="1" parent="6NykVeGMg2j_kF3JhgFq-1">
          <mxGeometry y="70" width="160" height="8" as="geometry" />
        </mxCell>
        <mxCell id="6NykVeGMg2j_kF3JhgFq-4" value="choose_name()&lt;div&gt;choose_symbol()&lt;/div&gt;" style="text;strokeColor=none;fillColor=none;align=left;verticalAlign=top;spacingLeft=4;spacingRight=4;overflow=hidden;rotatable=0;points=[[0,0.5],[1,0.5]];portConstraint=eastwest;whiteSpace=wrap;html=1;" vertex="1" parent="6NykVeGMg2j_kF3JhgFq-1">
          <mxGeometry y="78" width="160" height="42" as="geometry" />
        </mxCell>
        <mxCell id="6NykVeGMg2j_kF3JhgFq-5" value="Board" style="swimlane;fontStyle=1;align=center;verticalAlign=top;childLayout=stackLayout;horizontal=1;startSize=26;horizontalStack=0;resizeParent=1;resizeParentMax=0;resizeLast=0;collapsible=1;marginBottom=0;whiteSpace=wrap;html=1;" vertex="1" parent="1">
          <mxGeometry x="645" y="30" width="160" height="120" as="geometry" />
        </mxCell>
        <mxCell id="6NykVeGMg2j_kF3JhgFq-6" value="board : list" style="text;strokeColor=none;fillColor=none;align=left;verticalAlign=top;spacingLeft=4;spacingRight=4;overflow=hidden;rotatable=0;points=[[0,0.5],[1,0.5]];portConstraint=eastwest;whiteSpace=wrap;html=1;" vertex="1" parent="6NykVeGMg2j_kF3JhgFq-5">
          <mxGeometry y="26" width="160" height="26" as="geometry" />
        </mxCell>
        <mxCell id="6NykVeGMg2j_kF3JhgFq-7" value="" style="line;strokeWidth=1;fillColor=none;align=left;verticalAlign=middle;spacingTop=-1;spacingLeft=3;spacingRight=3;rotatable=0;labelPosition=right;points=[];portConstraint=eastwest;strokeColor=inherit;" vertex="1" parent="6NykVeGMg2j_kF3JhgFq-5">
          <mxGeometry y="52" width="160" height="8" as="geometry" />
        </mxCell>
        <mxCell id="6NykVeGMg2j_kF3JhgFq-8" value="display_board()&lt;div&gt;update_board()&lt;/div&gt;&lt;div&gt;reset_board()&lt;/div&gt;" style="text;strokeColor=none;fillColor=none;align=left;verticalAlign=top;spacingLeft=4;spacingRight=4;overflow=hidden;rotatable=0;points=[[0,0.5],[1,0.5]];portConstraint=eastwest;whiteSpace=wrap;html=1;" vertex="1" parent="6NykVeGMg2j_kF3JhgFq-5">
          <mxGeometry y="60" width="160" height="60" as="geometry" />
        </mxCell>
        <mxCell id="6NykVeGMg2j_kF3JhgFq-9" value="Menu" style="swimlane;fontStyle=1;align=center;verticalAlign=top;childLayout=stackLayout;horizontal=1;startSize=26;horizontalStack=0;resizeParent=1;resizeParentMax=0;resizeLast=0;collapsible=1;marginBottom=0;whiteSpace=wrap;html=1;" vertex="1" parent="1">
          <mxGeometry x="640" y="350" width="160" height="80" as="geometry" />
        </mxCell>
        <mxCell id="6NykVeGMg2j_kF3JhgFq-11" value="" style="line;strokeWidth=1;fillColor=none;align=left;verticalAlign=middle;spacingTop=-1;spacingLeft=3;spacingRight=3;rotatable=0;labelPosition=right;points=[];portConstraint=eastwest;strokeColor=inherit;" vertex="1" parent="6NykVeGMg2j_kF3JhgFq-9">
          <mxGeometry y="26" width="160" height="8" as="geometry" />
        </mxCell>
        <mxCell id="6NykVeGMg2j_kF3JhgFq-12" value="display_main_menu()&lt;div&gt;display_endgame_menu()&lt;br&gt;&lt;div&gt;&lt;br&gt;&lt;/div&gt;&lt;/div&gt;" style="text;strokeColor=none;fillColor=none;align=left;verticalAlign=top;spacingLeft=4;spacingRight=4;overflow=hidden;rotatable=0;points=[[0,0.5],[1,0.5]];portConstraint=eastwest;whiteSpace=wrap;html=1;" vertex="1" parent="6NykVeGMg2j_kF3JhgFq-9">
          <mxGeometry y="34" width="160" height="46" as="geometry" />
        </mxCell>
        <mxCell id="6NykVeGMg2j_kF3JhgFq-22" value="Game" style="swimlane;fontStyle=1;align=center;verticalAlign=top;childLayout=stackLayout;horizontal=1;startSize=26;horizontalStack=0;resizeParent=1;resizeParentMax=0;resizeLast=0;collapsible=1;marginBottom=0;whiteSpace=wrap;html=1;" vertex="1" parent="1">
          <mxGeometry x="380" y="110" width="160" height="210" as="geometry" />
        </mxCell>
        <mxCell id="6NykVeGMg2j_kF3JhgFq-26" value="" style="endArrow=diamond;html=1;rounded=0;endFill=1;exitX=1;exitY=0.5;exitDx=0;exitDy=0;entryX=0.031;entryY=0.693;entryDx=0;entryDy=0;entryPerimeter=0;" edge="1" parent="6NykVeGMg2j_kF3JhgFq-22" target="6NykVeGMg2j_kF3JhgFq-23">
          <mxGeometry width="50" height="50" relative="1" as="geometry">
            <mxPoint x="-155" y="-32" as="sourcePoint" />
            <mxPoint x="45" as="targetPoint" />
          </mxGeometry>
        </mxCell>
        <mxCell id="6NykVeGMg2j_kF3JhgFq-23" value="board : Board()&lt;div&gt;players : Player[]&lt;/div&gt;&lt;div&gt;menu: Menu()&lt;/div&gt;&lt;div&gt;current_player_index: int&lt;/div&gt;" style="text;strokeColor=none;fillColor=none;align=left;verticalAlign=top;spacingLeft=4;spacingRight=4;overflow=hidden;rotatable=0;points=[[0,0.5],[1,0.5]];portConstraint=eastwest;whiteSpace=wrap;html=1;" vertex="1" parent="6NykVeGMg2j_kF3JhgFq-22">
          <mxGeometry y="26" width="160" height="74" as="geometry" />
        </mxCell>
        <mxCell id="6NykVeGMg2j_kF3JhgFq-24" value="" style="line;strokeWidth=1;fillColor=none;align=left;verticalAlign=middle;spacingTop=-1;spacingLeft=3;spacingRight=3;rotatable=0;labelPosition=right;points=[];portConstraint=eastwest;strokeColor=inherit;" vertex="1" parent="6NykVeGMg2j_kF3JhgFq-22">
          <mxGeometry y="100" width="160" height="8" as="geometry" />
        </mxCell>
        <mxCell id="6NykVeGMg2j_kF3JhgFq-25" value="start_game()&lt;div&gt;play_turn()&lt;/div&gt;&lt;div&gt;check_win()&lt;/div&gt;&lt;div&gt;check_draw()&lt;/div&gt;&lt;div&gt;restart_game()&lt;/div&gt;&lt;div&gt;quit_game()&lt;/div&gt;" style="text;strokeColor=none;fillColor=none;align=left;verticalAlign=top;spacingLeft=4;spacingRight=4;overflow=hidden;rotatable=0;points=[[0,0.5],[1,0.5]];portConstraint=eastwest;whiteSpace=wrap;html=1;" vertex="1" parent="6NykVeGMg2j_kF3JhgFq-22">
          <mxGeometry y="108" width="160" height="102" as="geometry" />
        </mxCell>
        <mxCell id="6NykVeGMg2j_kF3JhgFq-27" value="" style="endArrow=diamond;html=1;rounded=0;entryX=1;entryY=0.5;entryDx=0;entryDy=0;exitX=0;exitY=0.5;exitDx=0;exitDy=0;endFill=1;" edge="1" parent="1" source="6NykVeGMg2j_kF3JhgFq-6" target="6NykVeGMg2j_kF3JhgFq-23">
          <mxGeometry width="50" height="50" relative="1" as="geometry">
            <mxPoint x="700" y="106" as="sourcePoint" />
            <mxPoint x="500" y="74" as="targetPoint" />
          </mxGeometry>
        </mxCell>
        <mxCell id="6NykVeGMg2j_kF3JhgFq-28" value="" style="endArrow=diamond;html=1;rounded=0;entryX=1;entryY=0.5;entryDx=0;entryDy=0;exitX=0;exitY=0.5;exitDx=0;exitDy=0;endFill=1;" edge="1" parent="1" source="6NykVeGMg2j_kF3JhgFq-12" target="6NykVeGMg2j_kF3JhgFq-25">
          <mxGeometry width="50" height="50" relative="1" as="geometry">
            <mxPoint x="420" y="190" as="sourcePoint" />
            <mxPoint x="470" y="140" as="targetPoint" />
          </mxGeometry>
        </mxCell>
      </root>
    </mxGraphModel>
  </diagram>
</mxfile>
